# xmcd
#
# Track frame offsets:
# 150
# 18139
# 32805
# 46175
# 60970
# 84603
# 98222
# 114619
# 132951
# 147423
# 163360
#
# Disc length: 2337 seconds
#
#
# Revision: 0
# Processed by: cddbd v1.4PL0 Copyright (c) Steve Scherf et al.
# Submitted via: FreeRIP 2.40 
#
DISCID=8f091f0b
DTITLE=Graham Ord - A Good Day With The Blues
DYEAR=2002
DGENRE=Blues
TTITLE0=The Light Of Day
TTITLE1=Hi Heeled Sneakers
TTITLE2=Slow Down
TTITLE3=The Twelve Bar Blues
TTITLE4=If You Wanna Shake The Blues
TTITLE5=The Turn Around
TTITLE6=Your Love Is Gold
TTITLE7=You Don't Mean Me No Good
TTITLE8=Rave On Peggy Sue
TTITLE9=Whoa Boot Black
TTITLE10=Jesus On The Mainline
EXTD=
EXTT0=
EXTT1=
EXTT2=
EXTT3=
EXTT4=
EXTT5=
EXTT6=
EXTT7=
EXTT8=
EXTT9=
EXTT10=
PLAYORDER=
